<?xml version="1.0" encoding="UTF-8"?>
<svg height="600" width="800" xmlns="http://www.w3.org/2000/svg" xmlns:xlink="http://www.w3.org/1999/xlink">
    <g id="Notes" font-family="'LucidaGrande', 'Lucida Grande', sans-serif" font-size="13">
        <rect fill="white" height="600.0" width="800.0" x="0.0" y="0.0" />
        <g font-size="13">
            <text x="18.0" y="176.0">Small</text>
            <text x="18.0" y="376.0">Medium</text>
            <text x="18.0" y="576.0">Large</text>
        </g>
        <g font-size="9">
            <text x="250.0" y="30.0">Ultralight</text>
            <text x="450.0" y="30.0">Regular</text>
            <text x="650.0" y="30.0">Black</text>
            <text id="template-version" fill="#505050" text-anchor="end" x="785.0" y="575.0">Template v.3.0</text>
            <a href="https://wangchujiang.com/#/app">
                <text fill="#505050" text-anchor="end" x="785.0" y="590.0">https://wangchujiang.com/#/app</text>
            </a>
        </g>
    </g>
    <g id="Guides" stroke="rgb(39, 170, 225)" stroke-width="0.5">
        <path id="Capline-S" d="M18,76 l800,0" />
        <path id="H-reference" d="M85,145.755 L87.685,145.755 L113.369,79.287 L114.052,79.287 L114.052,76 L112.148,76 L85,145.755 Z M95.693,121.536 L130.996,121.536 L130.263,119.313 L96.474,119.313 L95.693,121.536 Z M139.15,145.755 L141.787,145.755 L114.638,76 L113.466,76 L113.466,79.287 L139.15,145.755 Z" stroke="none" />
        <path id="Baseline-S" d="M18,146 l800,0" />
        <path id="left-margin-Ultralight-S" d="M220.228,56 l0,110" />
        <path id="right-margin-Ultralight-S" d="M309.772,56 l0,110" />
        <path id="left-margin-Regular-S" d="M420.228,56 l0,110" />
        <path id="right-margin-Regular-S" d="M509.772,56 l0,110" />
        <path id="left-margin-Black-S" d="M620.228,56 l0,110" />
        <path id="right-margin-Black-S" d="M709.772,56 l0,110" />
        <path id="Capline-M" d="M18,276 l800,0" />
        <path id="Baseline-M" d="M18,346 l800,0" />
        <path id="Capline-L" d="M18,476 l800,0" />
        <path id="Baseline-L" d="M18,546 l800,0" />
    </g>
    <g id="Symbols">
        <g id="Ultralight-S">
            <path d="M299.76,81.691 C299.561,88.152 298.167,94.361 295.839,100.377 C293.053,107.576 288.979,113.911 283.268,119.145 C282.805,119.569 282.66,120.024 282.721,120.623 C282.918,122.56 283.077,124.5 283.276,126.436 C283.741,130.952 282.16,134.647 278.519,137.27 C274.615,140.083 270.552,142.679 266.522,145.314 C263.982,146.974 260.861,145.467 260.578,142.455 C260.253,138.996 259.998,135.529 259.757,132.063 C259.637,130.328 259.684,130.313 258.005,130.092 C253.544,129.503 250.054,127.387 247.658,123.545 C246.425,121.568 245.814,119.381 245.599,117.084 C245.535,116.395 245.258,116.219 244.608,116.183 C241,115.984 237.392,115.77 233.789,115.498 C230.792,115.272 229.272,112.111 230.878,109.473 C232.008,107.62 233.208,105.809 234.374,103.978 C235.629,102.005 236.875,100.028 238.133,98.058 C240.436,94.452 243.755,92.505 248.004,92.471 C250.437,92.451 252.875,92.88 255.306,93.142 C255.767,93.192 256.093,93.129 256.411,92.773 C262.057,86.463 269.044,82.204 276.954,79.354 C281.425,77.743 286.026,76.692 290.747,76.205 C293.126,75.959 295.522,75.869 297.899,76.31 C299.194,76.55 299.26,76.603 299.46,77.868 C299.659,79.132 299.818,80.403 299.76,81.691 Z M288.487,97.626 C288.555,92.107 283.985,87.361 278.553,87.271 C272.91,87.178 268.024,91.28 267.89,97.686 C267.777,103.028 272.617,107.867 278.017,107.905 C283.769,107.946 288.416,103.383 288.487,97.626 Z M240.297,120.949 C241.365,120.963 241.956,121.435 242.339,122.525 C243.84,126.801 246.571,130.045 250.531,132.243 C251.405,132.728 252.326,133.122 253.278,133.446 C254.989,134.03 255.379,135.696 254.109,136.979 C252.23,138.876 250.33,140.753 248.451,142.65 C247.83,143.278 247.146,143.574 246.271,143.25 C245.384,142.92 244.955,142.262 244.911,141.343 C244.882,140.76 244.897,140.175 244.883,139.591 C244.858,138.518 244.848,138.509 243.86,138.836 C241.748,139.536 239.639,140.242 237.528,140.942 C236.905,141.148 236.281,141.234 235.672,140.889 C234.779,140.383 234.442,139.479 234.801,138.367 C235.502,136.198 236.239,134.04 236.956,131.875 C237.267,130.937 237.248,130.916 236.234,130.9 C235.622,130.891 235.009,130.901 234.398,130.871 C233.509,130.829 232.875,130.398 232.545,129.555 C232.224,128.735 232.429,128.02 233.03,127.415 C234.991,125.443 236.96,123.478 238.929,121.513 C239.321,121.122 239.787,120.9 240.297,120.949 Z M240.297,120.949" />
        </g>
        <g id="Regular-S">
            <path d="M499.76,81.691 C499.561,88.152 498.167,94.361 495.839,100.377 C493.053,107.576 488.979,113.911 483.268,119.145 C482.805,119.569 482.66,120.024 482.721,120.623 C482.918,122.56 483.077,124.5 483.276,126.436 C483.741,130.952 482.16,134.647 478.519,137.27 C474.614,140.083 470.552,142.679 466.522,145.314 C463.982,146.974 460.861,145.467 460.578,142.455 C460.253,138.996 459.998,135.529 459.757,132.063 C459.637,130.328 459.684,130.313 458.005,130.092 C453.544,129.503 450.054,127.387 447.658,123.545 C446.425,121.568 445.814,119.381 445.599,117.084 C445.535,116.395 445.258,116.219 444.608,116.183 C441,115.984 437.392,115.77 433.789,115.498 C430.792,115.272 429.272,112.111 430.878,109.473 C432.008,107.62 433.208,105.809 434.374,103.978 C435.629,102.005 436.875,100.028 438.133,98.058 C440.436,94.452 443.755,92.505 448.004,92.471 C450.437,92.451 452.875,92.88 455.306,93.142 C455.767,93.192 456.093,93.129 456.411,92.773 C462.057,86.463 469.044,82.204 476.954,79.354 C481.425,77.743 486.026,76.692 490.747,76.205 C493.126,75.959 495.522,75.869 497.899,76.31 C499.194,76.55 499.26,76.603 499.46,77.868 C499.659,79.132 499.818,80.403 499.76,81.691 Z M488.487,97.626 C488.555,92.107 483.985,87.361 478.553,87.271 C472.909,87.178 468.024,91.28 467.89,97.686 C467.777,103.028 472.617,107.867 478.017,107.905 C483.769,107.946 488.416,103.383 488.487,97.626 Z M440.297,120.949 C441.365,120.963 441.956,121.435 442.339,122.525 C443.84,126.801 446.571,130.045 450.531,132.243 C451.405,132.728 452.326,133.122 453.277,133.446 C454.989,134.03 455.379,135.696 454.109,136.979 C452.23,138.876 450.33,140.753 448.451,142.65 C447.83,143.278 447.146,143.574 446.271,143.25 C445.384,142.92 444.955,142.262 444.91,141.343 C444.882,140.76 444.897,140.175 444.883,139.591 C444.858,138.518 444.848,138.509 443.86,138.836 C441.748,139.536 439.639,140.242 437.528,140.942 C436.905,141.148 436.281,141.234 435.672,140.889 C434.779,140.383 434.442,139.479 434.801,138.367 C435.502,136.198 436.239,134.04 436.956,131.875 C437.267,130.937 437.248,130.916 436.234,130.9 C435.622,130.891 435.009,130.901 434.398,130.871 C433.509,130.829 432.875,130.398 432.545,129.555 C432.224,128.735 432.429,128.02 433.03,127.415 C434.991,125.443 436.96,123.478 438.929,121.513 C439.321,121.122 439.787,120.9 440.297,120.949 Z M440.297,120.949" />
        </g>
        <g id="Black-S">
            <path d="M699.76,81.691 C699.561,88.152 698.167,94.361 695.839,100.377 C693.053,107.576 688.979,113.911 683.268,119.145 C682.805,119.569 682.66,120.024 682.721,120.623 C682.918,122.56 683.077,124.5 683.276,126.436 C683.741,130.952 682.16,134.647 678.519,137.27 C674.615,140.083 670.552,142.679 666.522,145.314 C663.982,146.974 660.861,145.467 660.578,142.455 C660.253,138.996 659.998,135.529 659.757,132.063 C659.637,130.328 659.684,130.313 658.005,130.092 C653.544,129.503 650.054,127.387 647.658,123.545 C646.425,121.568 645.814,119.381 645.599,117.084 C645.535,116.395 645.258,116.219 644.608,116.183 C641,115.984 637.392,115.77 633.789,115.498 C630.792,115.272 629.272,112.111 630.878,109.473 C632.008,107.62 633.208,105.809 634.374,103.978 C635.629,102.005 636.875,100.028 638.133,98.058 C640.436,94.452 643.755,92.505 648.004,92.471 C650.437,92.451 652.875,92.88 655.306,93.142 C655.767,93.192 656.093,93.129 656.411,92.773 C662.057,86.463 669.044,82.204 676.954,79.354 C681.425,77.743 686.026,76.692 690.747,76.205 C693.126,75.959 695.522,75.869 697.899,76.31 C699.194,76.55 699.26,76.603 699.46,77.868 C699.659,79.132 699.818,80.403 699.76,81.691 Z M688.487,97.626 C688.555,92.107 683.985,87.361 678.553,87.271 C672.91,87.178 668.024,91.28 667.89,97.686 C667.777,103.028 672.617,107.867 678.017,107.905 C683.769,107.946 688.416,103.383 688.487,97.626 Z M640.297,120.949 C641.365,120.963 641.956,121.435 642.339,122.525 C643.84,126.801 646.571,130.045 650.531,132.243 C651.405,132.728 652.326,133.122 653.278,133.446 C654.989,134.03 655.379,135.696 654.109,136.979 C652.23,138.876 650.33,140.753 648.451,142.65 C647.83,143.278 647.146,143.574 646.271,143.25 C645.384,142.92 644.955,142.262 644.911,141.343 C644.882,140.76 644.897,140.175 644.883,139.591 C644.858,138.518 644.848,138.509 643.86,138.836 C641.748,139.536 639.639,140.242 637.528,140.942 C636.905,141.148 636.281,141.234 635.672,140.889 C634.779,140.383 634.442,139.479 634.801,138.367 C635.502,136.198 636.239,134.04 636.956,131.875 C637.267,130.937 637.248,130.916 636.234,130.9 C635.622,130.891 635.009,130.901 634.398,130.871 C633.509,130.829 632.875,130.398 632.545,129.555 C632.224,128.735 632.429,128.02 633.03,127.415 C634.991,125.443 636.96,123.478 638.929,121.513 C639.321,121.122 639.787,120.9 640.297,120.949 Z M640.297,120.949" />
        </g>
    </g>
</svg>